# xmcd
#
# Track frame offsets: 
#        150
#        16432
#        31665
#        46000
#        62425
#        79100
#        94535
#        109532
#        124312
#        138307
#        152255
#        166740
#        181915
#        196430
#        212390
#        227430
#        242915
#
# Disc length: 3439 seconds
#
# Revision: 4
# Processed by: cddbd v1.5.2PL0 Copyright (c) Steve Scherf et al.
# Submitted via: ExactAudioCopy v0.99pb4
#
DISCID=c20d6d11
DTITLE=Tommy Johnson - Complete Recorded Works in Chronological Order 
DTITLE=(1928-1929)
DYEAR=1900
DGENRE=Blues
TTITLE0=Cool Drink of Water Blues
TTITLE1=Big Road Blues
TTITLE2=Bye-Bye Blues
TTITLE3=Maggie Campbell Blues
TTITLE4=Canned Heat Blues
TTITLE5=Lonesome Home Blues (take 1)
TTITLE6=Lonesome Home Blues (take 2)
TTITLE7=Big Fat Mamma Blues
TTITLE8=I Wonder To Myself
TTITLE9=Slidin' Delta
TTITLE10=Lonesome Home Blues
TTITLE11=Untitled Song - take 1 (Morning Prayer Blues)
TTITLE12=Untitled Song - take 2 (Boogaloosa Woman)
TTITLE13=Black Mare Blues (take 1)
TTITLE14=Black Mare Blues (take 2)
TTITLE15=Ridin' Horse
TTITLE16=Alcohol and Jake Blues
EXTD=
EXTT0=
EXTT1=
EXTT2=
EXTT3=
EXTT4=
EXTT5=
EXTT6=
EXTT7=
EXTT8=
EXTT9=
EXTT10=
EXTT11=
EXTT12=
EXTT13=
EXTT14=
EXTT15=
EXTT16=
PLAYORDER=
